<?xml version="1.0" encoding="iso-8859-1"?>
<!-- Uploaded to: SVG Repo, www.svgrepo.com, Generator: SVG Repo Mixer Tools -->
<svg height="800px" width="800px" version="1.1" id="Layer_1" xmlns="http://www.w3.org/2000/svg" xmlns:xlink="http://www.w3.org/1999/xlink" 
	 viewBox="0 0 512 512" xml:space="preserve">
<path style="fill:#FFFFFF;" d="M317.951,367.951c-37.802,20.906-86.1,20.906-123.902,0L256,294.822L317.951,367.951z"/>
<path d="M451.666,500.472l-52.052-137.299c23.296-31.146,35.583-68.18,35.583-107.177c0-84.649-59.988-158.376-142.76-175.442
	L263.936,5.547C262.741,2.219,259.584,0,256,0c-3.584,0-6.741,2.219-7.936,5.547l-28.501,75.007
	c-82.772,17.066-142.76,90.793-142.76,175.442c0,38.997,12.288,76.031,35.583,107.177L60.334,500.472
	c-1.536,3.84,0,8.192,3.584,10.325s8.192,1.365,10.837-1.792l85.844-101.46c28.501,18.09,61.439,27.648,95.401,27.648
	s66.815-9.557,95.401-27.648l85.844,101.46c1.621,1.963,4.011,2.987,6.485,2.987c1.451,0,2.987-0.341,4.352-1.195
	C451.666,508.664,453.202,504.312,451.666,500.472z M418.131,255.996c0,31.487-8.96,61.61-25.856,87.807l-7.765-20.565
	c10.752-20.65,16.554-43.775,16.554-67.242c0-59.988-37.546-114.259-93.524-135.592l-7.765-20.48
	C368.979,119.294,418.131,183.122,418.131,255.996z M383.998,255.996c0,15.274-2.816,30.463-8.107,44.629l-59.732-157.523
	C357.289,165.117,383.998,208.551,383.998,255.996z M256,294.822l61.951,73.129c-37.802,20.906-86.1,20.906-123.902,0L256,294.822z
	 M93.869,255.996c0-72.873,49.151-136.702,118.355-156.072l-7.765,20.48c-55.978,21.333-93.524,75.604-93.524,135.592
	c0,22.272,4.949,43.605,14.592,63.487c0.597,1.109,1.365,2.048,2.304,2.816l-8.107,21.504
	C102.838,317.605,93.869,287.483,93.869,255.996z M195.841,143.102l-59.732,157.523c-5.291-14.25-8.107-29.184-8.107-44.629
	C128.002,208.551,154.711,165.117,195.841,143.102z M93.869,459.939L247.467,55.124v223.314L93.869,459.939z M256,418.126
	c-29.951,0-58.879-8.277-84.308-23.722l11.264-13.226l0.512,0.512c22.016,12.629,47.018,19.37,72.532,19.37
	s50.602-6.741,72.532-19.37c0.256-0.171,0.341-0.341,0.512-0.512l11.264,13.226C314.879,409.849,285.952,418.126,256,418.126z
	 M264.533,278.438V55.124l153.597,404.815L264.533,278.438z"/>
<path style="fill:#717272;" d="M212.225,99.924l-7.765,20.48c-55.978,21.333-93.524,75.604-93.524,135.592
	c0,22.272,4.949,43.605,14.592,63.487c0.597,1.109,1.365,2.048,2.304,2.816l-8.107,21.504
	c-16.896-26.197-25.856-56.319-25.856-87.807C93.869,183.122,143.021,119.294,212.225,99.924z"/>
<path style="fill:#FFFFFF;" d="M195.841,143.102l-59.732,157.523c-5.291-14.25-8.107-29.184-8.107-44.629
	C128.002,208.551,154.711,165.117,195.841,143.102z"/>
<polygon style="fill:#F9A825;" points="418.131,459.939 264.533,278.438 264.533,55.124 "/>
<path style="fill:#717272;" d="M340.308,394.404c-25.429,15.445-54.356,23.722-84.308,23.722c-29.952,0-58.879-8.277-84.308-23.722
	l11.264-13.226l0.512,0.512c22.016,12.629,47.018,19.37,72.532,19.37s50.602-6.741,72.532-19.37
	c0.256-0.171,0.341-0.341,0.512-0.512L340.308,394.404z"/>
<polygon style="fill:#FFC107;" points="247.467,55.124 247.467,278.438 93.869,459.939 "/>
<path style="fill:#FFFFFF;" d="M383.998,255.996c0,15.274-2.816,30.463-8.107,44.629l-59.732-157.523
	C357.289,165.117,383.998,208.551,383.998,255.996z"/>
<path style="fill:#717272;" d="M418.131,255.996c0,31.487-8.96,61.61-25.856,87.807l-7.765-20.565
	c10.752-20.65,16.554-43.775,16.554-67.242c0-59.988-37.546-114.259-93.524-135.592l-7.765-20.48
	C368.979,119.294,418.131,183.122,418.131,255.996z"/>
<path style="fill:#F4F4F4;" d="M256,315.728l49.322,58.222c4.309-1.775,8.542-3.738,12.629-5.999L256,294.822l-61.951,73.129
	c4.087,2.261,8.32,4.232,12.629,5.999L256,315.728z"/>
</svg>