<?xml version="1.0" encoding="iso-8859-1"?>
<!-- Uploaded to: SVG Repo, www.svgrepo.com, Generator: SVG Repo Mixer Tools -->
<svg height="800px" width="800px" version="1.1" id="Layer_1" xmlns="http://www.w3.org/2000/svg" xmlns:xlink="http://www.w3.org/1999/xlink" 
	 viewBox="0 0 285.529 285.529" xml:space="preserve">
<g>
	<g>
		<g>
			<path style="fill:#4EFFBB;" d="M195.99,49.781c-3.115-1.172-6.267-2.184-9.463-3.074v-20.38c0-4.165-3.518-7.682-7.642-7.682
				h-50.14c-4.165,0-7.682,3.518-7.682,7.682v20.379C96.882,53.38,74.762,67.37,58.548,87.63
				c-69.025,86.211,8.207,215.083,116.419,195.998c58.188-10.31,98.586-61.668,100.002-119.815
				C273.71,113.348,243.786,67.735,195.99,49.781z"/>
		</g>
		<g>
			<g id="XMLID_16_">
				<g>
					<path style="fill:#302C58;" d="M149.065,15.365v9.504c-11.606-1.656-23.334-1.618-34.816,0.041v-9.544h34.816V15.365z"/>
					<path style="fill:#302C58;" d="M208.061,152.528c1.537,0,3.074,0,4.611,0c-4.449,38.74-34.088,70.481-73.352,74.365
						c0-1.821,0-3.68,0-5.539c0-4.043-3.518-7.885-7.642-7.682c-4.165,0.162-7.682,3.355-7.682,7.682c0,1.859,0,3.721,0,5.58
						c-39.021-3.518-70.847-35.381-74.446-74.405c1.899,0,3.802,0,5.702,0c4.002,0,7.845-3.558,7.682-7.682
						c-0.203-4.165-3.396-7.682-7.682-7.682c-1.899,0-3.762,0-5.661,0c3.883-38.699,35.503-70.156,74.405-73.677
						c0,1.618,0,3.234,0,4.811c0,4.043,3.518,7.885,7.682,7.682c4.124-0.162,7.642-3.355,7.642-7.682c0-1.578,0-3.196,0-4.771
						c38.818,3.843,68.541,35.059,73.312,73.637c-1.537,0-3.034,0-4.571,0c-4.002,0-7.845,3.518-7.682,7.682
						C200.579,149.01,203.775,152.528,208.061,152.528z M170.696,113.304c0.769-2.79,0-5.783-2.021-7.804
						c-2.021-2.103-4.974-2.871-7.682-2.062l-49.253,14.396c-0.041,0-0.122,0.041-0.162,0.041c-0.081,0-0.122,0.041-0.203,0.081
						c-0.325,0.081-0.687,0.244-0.972,0.366c-0.362,0.122-0.687,0.322-1.012,0.565c-0.244,0.122-0.484,0.325-0.728,0.525
						c-0.325,0.203-0.606,0.484-0.85,0.728c-0.162,0.203-0.362,0.444-0.525,0.687c-0.203,0.284-0.403,0.565-0.565,0.89
						c-0.325,0.525-0.565,1.131-0.728,1.74l-0.041,0.203l-14.193,50.262c-0.809,2.83-0.041,5.823,1.94,7.885
						c1.537,1.537,3.518,2.306,5.58,2.306c0.687,0,1.456-0.081,2.143-0.284l49.171-14.396l0.403-0.122
						c0.647-0.162,1.172-0.403,1.74-0.728c0.366-0.203,0.647-0.444,0.972-0.687c0.284-0.203,0.525-0.444,0.769-0.687
						c0.203-0.244,0.444-0.525,0.647-0.809c0.203-0.244,0.406-0.525,0.565-0.809c0.203-0.325,0.284-0.647,0.444-0.972
						c0.122-0.244,0.203-0.525,0.284-0.769L170.696,113.304z"/>
					<path style="fill:#222051;" d="M25.463,85.084c-8.963,15.733-13.703,32.398-14.884,49.009
						c-0.309,4.336,3.146,8.032,7.495,8.032l0,0c3.846,0,7.057-2.918,7.42-6.745c1.434-15.215,6.161-29.583,13.475-42.357
						c1.659-2.899,1.125-6.551-1.237-8.913c-0.172-0.172-0.344-0.344-0.515-0.515C33.758,80.135,27.884,80.832,25.463,85.084z"/>
					<path style="fill:#222051;" d="M173.852,31.135c-3.115-1.172-6.267-2.184-9.463-3.074V7.682c0-4.165-3.518-7.682-7.642-7.682
						h-50.143c-4.227,0-7.682,3.458-7.682,7.682v20.379c-20.273,5.593-39.043,16.39-54.142,31.667
						c-3.024,3.059-2.99,8.007,0.05,11.05l0,0c3.077,3.077,8.042,3.021,11.097-0.075c19.351-19.617,46.081-31.923,75.261-31.923
						c59.037,0,104.853,48.403,106.269,106.39c-1.412,58.066-47.228,106.265-106.266,106.428
						c-52.052,0.109-96.343-39.19-104.772-89.192c-0.572-3.387-3.549-5.836-6.983-5.836l0,0c-4.455,0-7.854,4.055-7.023,8.429
						c11.625,61.159,69.297,112.526,140.41,99.983c58.188-10.31,98.586-61.665,100.002-119.815
						C251.572,94.703,221.648,49.09,173.852,31.135z M149.065,24.868c-11.606-1.659-23.331-1.618-34.816,0.041v-9.544h34.816V24.868
						z"/>
					<path style="fill:#222051;" d="M131.191,47.634c54.267,0,95.756,44.479,97.412,97.533
						c-1.659,53.051-43.145,97.533-97.412,97.533c-53.014,0-97.371-44.441-97.371-97.533
						C33.817,92.076,78.177,47.634,131.191,47.634z M212.669,152.528c-1.537,0-3.074,0-4.611,0c-4.286,0-7.482-3.518-7.682-7.682
						c-0.162-4.165,3.68-7.682,7.682-7.682c1.537,0,3.034,0,4.571,0c-4.771-38.577-34.494-69.794-73.312-73.637
						c0,1.578,0,3.193,0,4.771c0,4.327-3.518,7.52-7.642,7.682c-4.165,0.203-7.682-3.64-7.682-7.682c0-1.578,0-3.196,0-4.811
						c-38.899,3.518-70.522,34.978-74.405,73.677c1.899,0,3.762,0,5.661,0c4.286,0,7.482,3.518,7.682,7.682
						c0.162,4.124-3.68,7.682-7.682,7.682c-1.899,0-3.802,0-5.702,0c3.599,39.021,35.422,70.884,74.446,74.405
						c0-1.859,0-3.721,0-5.58c0-4.327,3.518-7.52,7.682-7.682c4.124-0.203,7.642,3.64,7.642,7.682c0,1.859,0,3.721,0,5.539
						C178.582,223.009,208.224,191.268,212.669,152.528z"/>
					<path style="fill:#222051;" d="M168.675,105.5c2.021,2.021,2.79,5.014,2.021,7.804l-14.274,50.546
						c-0.081,0.244-0.162,0.525-0.284,0.769c-0.162,0.325-0.244,0.647-0.444,0.972c-0.162,0.284-0.366,0.565-0.565,0.809
						c-0.203,0.284-0.444,0.565-0.647,0.809c-0.244,0.244-0.484,0.484-0.769,0.687c-0.325,0.244-0.606,0.484-0.972,0.687
						c-0.565,0.325-1.09,0.565-1.74,0.728l-0.403,0.122l-49.168,14.393c-0.687,0.203-1.456,0.284-2.143,0.284
						c-2.062,0-4.043-0.769-5.58-2.306c-1.981-2.062-2.749-5.055-1.94-7.885l14.193-50.262l0.041-0.203
						c0.162-0.606,0.403-1.212,0.728-1.74c0.162-0.325,0.362-0.606,0.565-0.89c0.162-0.244,0.362-0.484,0.525-0.687
						c0.244-0.244,0.525-0.525,0.85-0.728c0.244-0.203,0.484-0.403,0.728-0.525c0.325-0.244,0.647-0.444,1.012-0.565
						c0.284-0.122,0.647-0.284,0.972-0.366c0.081-0.041,0.122-0.081,0.203-0.081c0.041,0,0.122-0.041,0.162-0.041l49.253-14.396
						C163.701,102.629,166.654,103.397,168.675,105.5z M145.019,146.383l6.673-23.575L128.52,129.6L145.019,146.383z M133.9,157.705
						l-16.499-16.78l-6.673,23.534L133.9,157.705z"/>
				</g>
			</g>
		</g>
	</g>
</g>
</svg>